<svg xmlns="http://www.w3.org/2000/svg" xmlns:xlink="http://www.w3.org/1999/xlink" width="500" zoomAndPan="magnify" viewBox="0 0 375 374.999991" height="500" preserveAspectRatio="xMidYMid meet" version="1.0"><defs><clipPath id="5b8c94d6a7"><path d="M 268 9.691406 L 349 9.691406 L 349 116 L 268 116 Z M 268 9.691406 " clip-rule="nonzero"/></clipPath><clipPath id="37b2c0b01f"><path d="M 4.269531 237 L 29 237 L 29 365.191406 L 4.269531 365.191406 Z M 4.269531 237 " clip-rule="nonzero"/></clipPath><clipPath id="01ddb6d20f"><path d="M 146 237 L 171 237 L 171 365.191406 L 146 365.191406 Z M 146 237 " clip-rule="nonzero"/></clipPath><clipPath id="5dd943be20"><path d="M 251.546875 196.976562 L 262.230469 196.976562 L 262.230469 207.660156 L 251.546875 207.660156 Z M 251.546875 196.976562 " clip-rule="nonzero"/></clipPath><clipPath id="16e56a1f1b"><path d="M 256.886719 196.976562 C 253.9375 196.976562 251.546875 199.367188 251.546875 202.320312 C 251.546875 205.269531 253.9375 207.660156 256.886719 207.660156 C 259.839844 207.660156 262.230469 205.269531 262.230469 202.320312 C 262.230469 199.367188 259.839844 196.976562 256.886719 196.976562 Z M 256.886719 196.976562 " clip-rule="nonzero"/></clipPath></defs><path fill="#4caf50" d="M 190.972656 335.023438 L 189.859375 335.859375 C 187.359375 337.804688 186.804688 341.136719 188.75 343.636719 C 190.414062 346.136719 194.027344 346.695312 196.527344 344.75 L 197.640625 343.914062 C 200.140625 341.96875 200.695312 338.636719 198.75 336.136719 C 197.082031 333.636719 193.472656 333.078125 190.972656 335.023438 Z M 190.972656 335.023438 " fill-opacity="1" fill-rule="nonzero"/><path fill="#4caf50" d="M 269.597656 271.679688 L 267.652344 273.625 C 265.152344 275.570312 264.875 279.183594 266.816406 281.40625 C 268.761719 283.628906 272.375 284.183594 274.597656 282.238281 L 276.820312 280.292969 C 279.042969 278.347656 279.597656 274.738281 277.375 272.515625 C 275.429688 270.011719 272.097656 269.734375 269.597656 271.679688 Z M 269.597656 271.679688 " fill-opacity="1" fill-rule="nonzero"/><path fill="#4caf50" d="M 250.425781 288.351562 L 248.203125 290.292969 C 245.980469 292.238281 245.703125 295.851562 247.648438 298.074219 C 249.59375 300.296875 253.203125 300.574219 255.425781 298.628906 L 257.648438 296.683594 C 259.871094 294.738281 260.148438 291.128906 258.207031 288.90625 C 256.261719 286.683594 252.648438 286.128906 250.425781 288.351562 Z M 250.425781 288.351562 " fill-opacity="1" fill-rule="nonzero"/><path fill="#4caf50" d="M 294.042969 230.007812 C 292.378906 227.507812 288.765625 226.949219 286.265625 228.617188 C 283.765625 230.285156 283.210938 233.894531 284.875 236.398438 C 285.15625 236.953125 285.710938 237.507812 285.988281 238.0625 C 287.378906 240.839844 290.710938 241.675781 293.488281 240.285156 C 296.265625 238.898438 297.378906 235.5625 295.710938 232.785156 C 295.15625 231.953125 294.601562 230.839844 294.042969 230.007812 Z M 294.042969 230.007812 " fill-opacity="1" fill-rule="nonzero"/><path fill="#4caf50" d="M 292.378906 252.234375 C 289.597656 250.84375 286.265625 251.953125 284.875 254.734375 C 284.597656 255.566406 284.042969 256.121094 283.765625 256.957031 C 282.097656 259.457031 282.933594 263.066406 285.710938 264.457031 C 288.210938 266.125 291.820312 265.011719 293.210938 262.511719 C 293.765625 261.679688 294.324219 260.566406 294.878906 259.734375 C 296.265625 256.957031 295.15625 253.621094 292.378906 252.234375 Z M 292.378906 252.234375 " fill-opacity="1" fill-rule="nonzero"/><path fill="#4caf50" d="M 230.976562 304.1875 L 228.753906 305.851562 C 226.253906 307.796875 225.976562 311.410156 227.921875 313.632812 C 229.867188 315.855469 233.480469 316.410156 235.703125 314.464844 L 237.925781 312.796875 C 240.425781 310.855469 240.703125 307.242188 238.757812 305.019531 C 236.8125 302.796875 233.480469 302.242188 230.976562 304.1875 Z M 230.976562 304.1875 " fill-opacity="1" fill-rule="nonzero"/><path fill="#4caf50" d="M 211.253906 319.746094 L 209.03125 321.410156 C 206.53125 323.355469 206.25 326.691406 207.917969 329.191406 C 209.863281 331.691406 213.199219 331.96875 215.699219 330.300781 L 217.921875 328.632812 C 220.421875 326.691406 220.699219 323.355469 219.03125 320.855469 C 217.085938 318.355469 213.753906 318.078125 211.253906 319.746094 Z M 211.253906 319.746094 " fill-opacity="1" fill-rule="nonzero"/><path fill="#4caf50" d="M 267.652344 222.503906 C 267.929688 222.78125 268.484375 223.0625 268.761719 223.339844 C 271.261719 225.003906 274.875 224.449219 276.542969 221.949219 C 278.207031 219.449219 277.652344 216.117188 275.152344 214.171875 L 274.042969 213.335938 C 271.539062 211.390625 268.207031 211.949219 266.261719 214.449219 C 264.59375 217.226562 265.152344 220.558594 267.652344 222.503906 Z M 267.652344 222.503906 " fill-opacity="1" fill-rule="nonzero"/><path fill="#4caf50" d="M 294.878906 188.054688 C 284.042969 185 274.042969 181.941406 265.152344 178.054688 C 262.09375 176.664062 260.707031 175.550781 260.148438 174.996094 C 261.539062 174.441406 264.316406 173.886719 268.484375 173.886719 C 268.484375 173.886719 298.769531 172.773438 306.269531 171.941406 C 320.160156 170.550781 332.386719 162.773438 339.332031 151.660156 C 340.996094 149.160156 340.164062 145.546875 337.386719 144.160156 C 334.886719 142.492188 331.273438 143.324219 329.882812 146.101562 C 324.882812 154.4375 315.714844 159.996094 305.15625 161.105469 C 297.933594 161.9375 267.929688 163.050781 267.929688 163.050781 C 263.207031 163.328125 255.425781 163.605469 251.257812 168.328125 C 249.316406 170.550781 248.480469 173.050781 248.757812 176.109375 C 249.316406 183.609375 257.648438 187.222656 260.429688 188.609375 C 269.875 192.777344 280.988281 196.113281 291.542969 199.167969 C 332.382812 211.113281 356.277344 221.394531 346.554688 259.179688 C 342.941406 273.625 325.71875 302.519531 310.4375 323.632812 C 308.769531 326.132812 309.324219 329.46875 311.824219 331.414062 C 314.324219 333.078125 317.9375 332.523438 319.605469 330.023438 C 334.886719 308.910156 353.222656 278.347656 357.390625 261.957031 C 370.726562 210.558594 328.496094 198.054688 294.878906 188.054688 Z M 294.878906 188.054688 " fill-opacity="1" fill-rule="nonzero"/><g clip-path="url(#5b8c94d6a7)"><path fill="#4caf50" d="M 300.15625 110.542969 C 301.824219 113.597656 304.878906 115.265625 308.492188 115.265625 C 311.824219 115.265625 314.882812 113.597656 316.546875 110.542969 L 343.496094 68.035156 C 347.109375 61.921875 348.777344 55.253906 348.777344 49.140625 C 348.777344 27.472656 330.71875 9.691406 308.492188 9.691406 C 286.265625 9.691406 268.207031 27.472656 268.207031 49.140625 C 268.207031 55.53125 270.152344 62.199219 273.761719 68.3125 Z M 308.492188 20.804688 C 324.605469 20.804688 337.664062 33.582031 337.664062 49.140625 C 337.664062 53.585938 336.273438 58.308594 334.050781 62.476562 L 308.492188 102.761719 L 283.210938 62.476562 C 280.710938 58.03125 279.320312 53.308594 279.320312 49.140625 C 279.320312 33.582031 292.378906 20.804688 308.492188 20.804688 Z M 308.492188 20.804688 " fill-opacity="1" fill-rule="nonzero"/></g><path fill="#4caf50" d="M 308.492188 65.253906 C 317.660156 65.253906 325.160156 57.753906 325.160156 48.585938 C 325.160156 39.417969 317.660156 31.917969 308.492188 31.917969 C 299.324219 31.917969 291.820312 39.417969 291.820312 48.585938 C 291.820312 57.753906 299.324219 65.253906 308.492188 65.253906 Z M 308.492188 43.03125 C 311.546875 43.03125 314.046875 45.53125 314.046875 48.585938 C 314.046875 51.640625 311.546875 54.144531 308.492188 54.144531 C 305.4375 54.144531 302.933594 51.640625 302.933594 48.585938 C 302.933594 45.53125 305.4375 43.03125 308.492188 43.03125 Z M 308.492188 43.03125 " fill-opacity="1" fill-rule="nonzero"/><path fill="#4caf50" d="M 87.621094 209.726562 C 107.625 209.726562 123.738281 193.613281 123.738281 173.609375 L 123.738281 151.382812 C 123.738281 131.378906 107.625 115.265625 87.621094 115.265625 C 67.617188 115.265625 51.503906 131.378906 51.503906 151.382812 L 51.503906 173.609375 C 51.503906 193.613281 67.617188 209.726562 87.621094 209.726562 Z M 62.617188 151.382812 C 62.617188 137.492188 73.730469 126.378906 87.621094 126.378906 C 101.511719 126.378906 112.625 137.492188 112.625 151.382812 L 112.625 173.609375 C 112.625 187.5 101.511719 198.613281 87.621094 198.613281 C 73.730469 198.613281 62.617188 187.5 62.617188 173.609375 Z M 62.617188 151.382812 " fill-opacity="1" fill-rule="nonzero"/><path fill="#4caf50" d="M 229.589844 181.941406 C 227.367188 180.277344 224.589844 178.886719 221.808594 177.496094 C 212.917969 172.773438 205.695312 168.328125 206.53125 163.050781 C 206.808594 161.382812 207.363281 156.660156 219.585938 153.605469 C 235.144531 149.4375 250.980469 149.160156 267.652344 148.882812 C 272.652344 148.882812 285.433594 148.324219 287.097656 148.324219 C 294.878906 148.324219 305.4375 148.324219 311.269531 142.492188 C 314.046875 139.714844 315.4375 136.101562 315.4375 131.933594 C 315.4375 128.878906 312.9375 126.378906 309.878906 126.378906 C 306.824219 126.378906 304.324219 128.878906 304.324219 131.933594 C 304.324219 133.601562 303.769531 134.15625 303.492188 134.433594 C 300.710938 137.210938 292.378906 136.933594 287.097656 136.933594 C 285.433594 136.933594 272.375 137.210938 267.375 137.492188 C 250.703125 137.769531 233.480469 138.046875 216.808594 142.492188 C 204.027344 145.824219 196.804688 152.214844 195.417969 161.105469 C 193.472656 174.441406 206.808594 181.664062 216.53125 186.945312 C 219.03125 188.332031 221.53125 189.722656 223.199219 190.832031 C 229.867188 195.554688 233.199219 200.277344 232.921875 205.28125 C 232.089844 220.558594 199.582031 238.621094 188.75 244.730469 C 188.191406 245.007812 183.746094 247.507812 176.246094 251.398438 C 177.914062 254.734375 179.300781 258.34375 180.136719 261.957031 C 188.472656 257.511719 193.472656 254.734375 194.027344 254.457031 C 218.199219 241.121094 242.925781 225.003906 243.757812 206.113281 C 244.3125 197.222656 239.589844 189.167969 229.589844 181.941406 Z M 229.589844 181.941406 " fill-opacity="1" fill-rule="nonzero"/><g clip-path="url(#37b2c0b01f)"><path fill="#4caf50" d="M 4.273438 275.570312 L 4.273438 359.75 C 4.273438 362.808594 6.773438 365.308594 9.828125 365.308594 C 12.886719 365.308594 15.386719 362.808594 15.386719 359.75 L 15.386719 275.570312 C 15.386719 266.125 19.832031 257.789062 26.777344 251.953125 L 27.609375 242.507812 C 27.886719 240.839844 28.164062 238.898438 28.441406 237.230469 C 14.273438 244.730469 4.273438 258.902344 4.273438 275.570312 Z M 4.273438 275.570312 " fill-opacity="1" fill-rule="nonzero"/></g><g clip-path="url(#01ddb6d20f)"><path fill="#4caf50" d="M 146.519531 237.230469 C 147.074219 238.898438 147.351562 240.5625 147.351562 242.230469 L 148.1875 251.675781 C 155.132812 257.511719 159.578125 266.125 159.578125 275.292969 L 159.578125 359.75 C 159.578125 362.808594 162.078125 365.308594 165.132812 365.308594 C 168.191406 365.308594 170.691406 362.808594 170.691406 359.75 L 170.691406 275.570312 C 170.96875 258.902344 161.242188 244.730469 146.519531 237.230469 Z M 146.519531 237.230469 " fill-opacity="1" fill-rule="nonzero"/></g><path fill="#4caf50" d="M 117.902344 278.625 C 117.625 272.792969 112.347656 268.070312 106.234375 268.070312 L 69.003906 268.070312 C 62.617188 268.070312 57.613281 272.792969 57.335938 278.625 C 57.335938 278.625 54.28125 294.738281 54.28125 295.019531 C 53.726562 298.351562 56.226562 301.6875 59.835938 301.6875 C 59.835938 301.6875 115.402344 301.6875 115.402344 301.6875 C 118.738281 301.6875 121.515625 298.351562 120.960938 295.019531 Z M 66.503906 290.292969 C 66.503906 290.292969 68.449219 279.738281 68.449219 279.460938 C 68.449219 279.460938 68.726562 279.183594 69.003906 279.183594 L 105.957031 279.183594 C 106.234375 279.183594 106.511719 279.738281 106.789062 280.292969 L 108.734375 290.292969 Z M 66.503906 290.292969 " fill-opacity="1" fill-rule="nonzero"/><path fill="#4caf50" d="M 136.515625 243.621094 C 135.128906 230.839844 124.292969 220.839844 111.511719 220.839844 L 63.726562 220.839844 C 50.667969 220.839844 40.113281 230.5625 38.722656 243.621094 C 38.722656 243.621094 29.277344 335.300781 29.277344 335.300781 C 27.886719 348.082031 38.167969 359.75 51.226562 359.75 C 51.226562 359.75 123.738281 359.75 123.738281 359.75 C 136.515625 359.75 147.074219 348.082031 145.6875 335.300781 Z M 82.0625 231.953125 L 93.175781 231.953125 L 93.175781 240.285156 C 93.175781 241.953125 92.066406 243.0625 90.398438 243.0625 L 84.84375 243.0625 C 83.175781 243.0625 82.0625 241.953125 82.0625 240.285156 Z M 49.835938 244.730469 C 50.667969 237.507812 56.503906 231.953125 63.726562 231.953125 L 70.949219 231.953125 L 70.949219 240.285156 C 70.949219 248.066406 77.0625 254.175781 84.84375 254.175781 L 90.398438 254.175781 C 98.175781 254.175781 104.289062 248.066406 104.289062 240.285156 L 104.289062 231.953125 L 111.511719 231.953125 C 118.738281 231.953125 124.847656 237.507812 125.40625 244.730469 L 133.460938 323.632812 L 41.777344 323.632812 Z M 124.015625 348.636719 C 124.015625 348.636719 51.503906 348.636719 51.503906 348.636719 C 45.113281 348.636719 40.113281 342.804688 40.667969 336.414062 L 40.945312 334.746094 L 134.851562 334.746094 C 134.851562 334.746094 135.128906 336.414062 135.128906 336.414062 C 135.128906 339.746094 133.738281 347.804688 124.015625 348.636719 Z M 124.015625 348.636719 " fill-opacity="1" fill-rule="nonzero"/><g clip-path="url(#5dd943be20)"><g clip-path="url(#16e56a1f1b)"><path fill="#4caf50" d="M 251.546875 196.976562 L 262.230469 196.976562 L 262.230469 207.660156 L 251.546875 207.660156 Z M 251.546875 196.976562 " fill-opacity="1" fill-rule="nonzero"/></g></g></svg>